<?xml version="1.0" encoding="utf-8"?>
<!--SvgWriter version 0.0.0.0-->
<svg xmlns:xlink="http://www.w3.org/1999/xlink" width="556.6328" height="700.2773" id="svg2" version="1.1" xmlns="http://www.w3.org/2000/svg">
  <g transform="translate(152.81639099121094,1200.2772941589355)">
    <!--Edges-->
    <path fill="none" stroke="#000000" stroke-opacity="1" stroke-width="1" d="M 251 -1111.0039 L 251 -1091.0039" />
    <polygon stroke="#000000" stroke-opacity="1" stroke-width="1" fill="#000000" fill-opacity="1" points="248.7831 -1091.0039 251 -1081.0039 253.2169 -1091.0039" />
    <path fill="none" stroke="#000000" stroke-opacity="1" stroke-width="1" d="M 251 -673.9101 L 251 -653.9101" />
    <polygon stroke="#000000" stroke-opacity="1" stroke-width="1" fill="#000000" fill-opacity="1" points="248.7831 -653.9101 251 -643.9101 253.2169 -653.9101" />
    <path fill="none" stroke="#000000" stroke-opacity="1" stroke-width="1" d="M 251 -619.2734 L 251 -599.2734" />
    <polygon stroke="#000000" stroke-opacity="1" stroke-width="1" fill="#000000" fill-opacity="1" points="248.7831 -599.2734 251 -589.2734 253.2169 -599.2734" />
    <path fill="none" stroke="#000000" stroke-opacity="1" stroke-width="1" d="M 57 -1111.0039 L 57 -1091.0039" />
    <polygon stroke="#000000" stroke-opacity="1" stroke-width="1" fill="#000000" fill-opacity="1" points="54.7831 -1091.0039 57 -1081.0039 59.2169 -1091.0039" />
    <path fill="none" stroke="#000000" stroke-opacity="1" stroke-width="1" d="M 251 -1001.7304 L 251 -981.7304" />
    <polygon stroke="#000000" stroke-opacity="1" stroke-width="1" fill="#000000" fill-opacity="1" points="248.7831 -981.7304 251 -971.7304 253.2169 -981.7304" />
    <path fill="none" stroke="#000000" stroke-opacity="1" stroke-width="1" d="M 0 -837.8203 L 0 -817.8203" />
    <polygon stroke="#000000" stroke-opacity="1" stroke-width="1" fill="#000000" fill-opacity="1" points="-2.2169 -817.8203 0 -807.8203 2.2169 -817.8203" />
    <path fill="none" stroke="#000000" stroke-opacity="1" stroke-width="1" d="M 0 -564.6367 L 0 -544.6367" />
    <polygon stroke="#000000" stroke-opacity="1" stroke-width="1" fill="#000000" fill-opacity="1" points="-2.2169 -544.6367 0 -534.6367 2.2169 -544.6367" />
    <path fill="none" stroke="#000000" stroke-opacity="1" stroke-width="1" d="M 0 -673.9101 L 0 -653.9101" />
    <polygon stroke="#000000" stroke-opacity="1" stroke-width="1" fill="#000000" fill-opacity="1" points="-2.2169 -653.9101 0 -643.9101 2.2169 -653.9101" />
    <path fill="none" stroke="#000000" stroke-opacity="1" stroke-width="1" d="M 251 -564.6367 L 251 -544.6367" />
    <polygon stroke="#000000" stroke-opacity="1" stroke-width="1" fill="#000000" fill-opacity="1" points="248.7831 -544.6367 251 -534.6367 253.2169 -544.6367" />
    <path fill="none" stroke="#000000" stroke-opacity="1" stroke-width="1" d="M 100.7391 -1056.3671 L 197.6353 -1029.078" />
    <polygon stroke="#000000" stroke-opacity="1" stroke-width="1" fill="#000000" fill-opacity="1" points="197.0344 -1026.9441 207.2609 -1026.3671 198.2363 -1031.212" />
    <path fill="none" stroke="#000000" stroke-opacity="1" stroke-width="1" d="M 251 -947.0937 L 251 -927.0937" />
    <polygon stroke="#000000" stroke-opacity="1" stroke-width="1" fill="#000000" fill-opacity="1" points="248.7831 -927.0937 251 -917.0937 253.2169 -927.0937" />
    <path fill="none" stroke="#000000" stroke-opacity="1" stroke-width="1" d="M 251 -728.5469 L 251 -708.5469" />
    <polygon stroke="#000000" stroke-opacity="1" stroke-width="1" fill="#000000" fill-opacity="1" points="248.7831 -708.5469 251 -698.5469 253.2169 -708.5469" />
    <path fill="none" stroke="#000000" stroke-opacity="1" stroke-width="1" d="M 251 -837.8203 L 251 -817.8203" />
    <polygon stroke="#000000" stroke-opacity="1" stroke-width="1" fill="#000000" fill-opacity="1" points="248.7831 -817.8203 251 -807.8203 253.2169 -817.8203" />
    <path fill="none" stroke="#000000" stroke-opacity="1" stroke-width="1" d="M 251 -783.1836 L 251 -763.1836" />
    <polygon stroke="#000000" stroke-opacity="1" stroke-width="1" fill="#000000" fill-opacity="1" points="248.7831 -763.1836 251 -753.1836 253.2169 -763.1836" />
    <path fill="none" stroke="#000000" stroke-opacity="1" stroke-width="1" d="M 0 -947.0937 L 0 -927.0937" />
    <polygon stroke="#000000" stroke-opacity="1" stroke-width="1" fill="#000000" fill-opacity="1" points="-2.2169 -927.0937 0 -917.0937 2.2169 -927.0937" />
    <path fill="none" stroke="#000000" stroke-opacity="1" stroke-width="1" d="M 0 -783.1836 L 0 -763.1836" />
    <polygon stroke="#000000" stroke-opacity="1" stroke-width="1" fill="#000000" fill-opacity="1" points="-2.2169 -763.1836 0 -753.1836 2.2169 -763.1836" />
    <path fill="none" stroke="#000000" stroke-opacity="1" stroke-width="1" d="M 251 -1165.6406 L 251 -1145.6406" />
    <polygon stroke="#000000" stroke-opacity="1" stroke-width="1" fill="#000000" fill-opacity="1" points="248.7831 -1145.6406 251 -1135.6406 253.2169 -1145.6406" />
    <path fill="none" stroke="#000000" stroke-opacity="1" stroke-width="1" d="M 0 -728.5469 L 0 -708.5469" />
    <polygon stroke="#000000" stroke-opacity="1" stroke-width="1" fill="#000000" fill-opacity="1" points="-2.2169 -708.5469 0 -698.5469 2.2169 -708.5469" />
    <path fill="none" stroke="#000000" stroke-opacity="1" stroke-width="1" d="M 0 -619.2734 L 0 -599.2734" />
    <polygon stroke="#000000" stroke-opacity="1" stroke-width="1" fill="#000000" fill-opacity="1" points="-2.2169 -599.2734 0 -589.2734 2.2169 -599.2734" />
    <path fill="none" stroke="#000000" stroke-opacity="1" stroke-width="1" d="M 0 -892.457 L 0 -872.457" />
    <polygon stroke="#000000" stroke-opacity="1" stroke-width="1" fill="#000000" fill-opacity="1" points="-2.2169 -872.457 0 -862.457 2.2169 -872.457" />
    <path fill="none" stroke="#000000" stroke-opacity="1" stroke-width="1" d="M 57 -1165.6406 L 57 -1145.6406" />
    <polygon stroke="#000000" stroke-opacity="1" stroke-width="1" fill="#000000" fill-opacity="1" points="54.7831 -1145.6406 57 -1135.6406 59.2169 -1145.6406" />
    <path fill="none" stroke="#000000" stroke-opacity="1" stroke-width="1" d="M 0 -1001.7304 L 0 -981.7304" />
    <polygon stroke="#000000" stroke-opacity="1" stroke-width="1" fill="#000000" fill-opacity="1" points="-2.2169 -981.7304 0 -971.7304 2.2169 -981.7304" />
    <path fill="none" stroke="#000000" stroke-opacity="1" stroke-width="1" d="M 251 -892.457 L 251 -872.457" />
    <polygon stroke="#000000" stroke-opacity="1" stroke-width="1" fill="#000000" fill-opacity="1" points="248.7831 -872.457 251 -862.457 253.2169 -872.457" />
    <path fill="none" stroke="#000000" stroke-opacity="1" stroke-width="1" d="M 251 -1056.3671 L 251 -1036.3671" />
    <polygon stroke="#000000" stroke-opacity="1" stroke-width="1" fill="#000000" fill-opacity="1" points="248.7831 -1036.3671 251 -1026.3671 253.2169 -1036.3671" />
    <!--nodes-->
    <rect fill="#add8e6" fill-opacity="1" stroke="#000000" stroke-opacity="1" stroke-width="1" x="170.4199" y="-1135.6406" width="161.1601" height="24.6367" rx="3" ry="3" />
    <text x="171.4199" y="-1115.7767" font-family="Arial" font-size="16" fill="#000000">
      <tspan x="171.4199" dy="0">构造函数(Page1)</tspan>
    </text>
    <rect fill="#add8e6" fill-opacity="1" stroke="#000000" stroke-opacity="1" stroke-width="1" x="140.4444" y="-698.5469" width="221.1113" height="24.6367" rx="3" ry="3" />
    <text x="141.4444" y="-678.6829" font-family="Arial" font-size="16" fill="#000000">
      <tspan x="141.4444" dy="0">ArrangeOverride(Page1)</tspan>
    </text>
    <rect fill="#add8e6" fill-opacity="1" stroke="#000000" stroke-opacity="1" stroke-width="1" x="168.2861" y="-643.9101" width="165.4277" height="24.6367" rx="3" ry="3" />
    <text x="169.2861" y="-624.0462" font-family="Arial" font-size="16" fill="#000000">
      <tspan x="169.2861" dy="0">OnRender(Page1)</tspan>
    </text>
    <rect fill="#add8e6" fill-opacity="1" stroke="#000000" stroke-opacity="1" stroke-width="1" x="-23.5801" y="-1135.6406" width="161.1601" height="24.6367" rx="3" ry="3" />
    <text x="-22.5801" y="-1115.7767" font-family="Arial" font-size="16" fill="#000000">
      <tspan x="-22.5801" dy="0">构造函数(Page2)</tspan>
    </text>
    <rect fill="#add8e6" fill-opacity="1" stroke="#000000" stroke-opacity="1" stroke-width="1" x="166.6406" y="-1026.3671" width="168.7187" height="24.6367" rx="3" ry="3" />
    <text x="167.6406" y="-1006.5032" font-family="Arial" font-size="16" fill="#000000">
      <tspan x="167.6406" dy="0">初始化Pages结束</tspan>
    </text>
    <rect fill="#add8e6" fill-opacity="1" stroke="#000000" stroke-opacity="1" stroke-width="1" x="-116.7324" y="-862.457" width="233.4648" height="24.6367" rx="3" ry="3" />
    <text x="-115.7324" y="-842.5931" font-family="Arial" font-size="16" fill="#000000">
      <tspan x="-115.7324" dy="0">OnApplyTemplate(Page2)</tspan>
    </text>
    <rect fill="#add8e6" fill-opacity="1" stroke="#000000" stroke-opacity="1" stroke-width="1" x="-82.7285" y="-589.2734" width="165.457" height="24.6367" rx="3" ry="3" />
    <text x="-81.7285" y="-569.4095" font-family="Arial" font-size="16" fill="#000000">
      <tspan x="-81.7285" dy="0">UnLoaded(Page1)</tspan>
    </text>
    <rect fill="#add8e6" fill-opacity="1" stroke="#000000" stroke-opacity="1" stroke-width="1" x="-69.9453" y="-534.6367" width="139.8906" height="24.6367" rx="3" ry="3" />
    <text x="-68.9453" y="-514.7728" font-family="Arial" font-size="16" fill="#000000">
      <tspan x="-68.9453" dy="0">Loaded(Page2)</tspan>
    </text>
    <rect fill="#add8e6" fill-opacity="1" stroke="#000000" stroke-opacity="1" stroke-width="1" x="181.0547" y="-534.6367" width="139.8906" height="24.6367" rx="3" ry="3" />
    <text x="182.0547" y="-514.7728" font-family="Arial" font-size="16" fill="#000000">
      <tspan x="182.0547" dy="0">Loaded(Page1)</tspan>
    </text>
    <rect fill="#add8e6" fill-opacity="1" stroke="#000000" stroke-opacity="1" stroke-width="1" x="-82.7139" y="-698.5469" width="165.4277" height="24.6367" rx="3" ry="3" />
    <text x="-81.7139" y="-678.6829" font-family="Arial" font-size="16" fill="#000000">
      <tspan x="-81.7139" dy="0">OnRender(Page2)</tspan>
    </text>
    <rect fill="#add8e6" fill-opacity="1" stroke="#000000" stroke-opacity="1" stroke-width="1" x="108.1836" y="-589.2734" width="285.6328" height="24.6367" rx="3" ry="3" />
    <text x="109.1836" y="-569.4095" font-family="Arial" font-size="16" fill="#000000">
      <tspan x="109.1836" dy="0">OnRenderSizeChanged(Page1)</tspan>
    </text>
    <rect fill="#add8e6" fill-opacity="1" stroke="#000000" stroke-opacity="1" stroke-width="1" x="-34.8398" y="-1081.0039" width="183.6797" height="24.6367" rx="3" ry="3" />
    <text x="-33.8398" y="-1061.1399" font-family="Arial" font-size="16" fill="#000000">
      <tspan x="-33.8398" dy="0">OnInitialized(Page2)</tspan>
    </text>
    <rect fill="#add8e6" fill-opacity="1" stroke="#000000" stroke-opacity="1" stroke-width="1" x="128.6328" y="-971.7304" width="244.7343" height="24.6367" rx="3" ry="3" />
    <text x="129.6328" y="-951.8665" font-family="Arial" font-size="16" fill="#000000">
      <tspan x="129.6328" dy="0">导航到 Page1(Frame[null])</tspan>
    </text>
    <rect fill="#add8e6" fill-opacity="1" stroke="#000000" stroke-opacity="1" stroke-width="1" x="137.1143" y="-753.1836" width="227.7715" height="24.6367" rx="3" ry="3" />
    <text x="138.1143" y="-733.3196" font-family="Arial" font-size="16" fill="#000000">
      <tspan x="138.1143" dy="0">MeasureOverride(Page1)</tspan>
    </text>
    <rect fill="#add8e6" fill-opacity="1" stroke="#000000" stroke-opacity="1" stroke-width="1" x="148.1201" y="-862.457" width="205.7597" height="24.6367" rx="3" ry="3" />
    <text x="149.1201" y="-842.5931" font-family="Arial" font-size="16" fill="#000000">
      <tspan x="149.1201" dy="0">Navigated(Frame[null])</tspan>
    </text>
    <rect fill="#add8e6" fill-opacity="1" stroke="#000000" stroke-opacity="1" stroke-width="1" x="134.2676" y="-807.8203" width="233.4648" height="24.6367" rx="3" ry="3" />
    <text x="135.2676" y="-787.9564" font-family="Arial" font-size="16" fill="#000000">
      <tspan x="135.2676" dy="0">OnApplyTemplate(Page1)</tspan>
    </text>
    <rect fill="#add8e6" fill-opacity="1" stroke="#000000" stroke-opacity="1" stroke-width="1" x="-118.3926" y="-971.7304" width="236.7851" height="24.6367" rx="3" ry="3" />
    <text x="-117.3926" y="-951.8665" font-family="Arial" font-size="16" fill="#000000">
      <tspan x="-117.3926" dy="0">Navigating(Frame[Page1])</tspan>
    </text>
    <rect fill="#add8e6" fill-opacity="1" stroke="#000000" stroke-opacity="1" stroke-width="1" x="-113.8857" y="-807.8203" width="227.7715" height="24.6367" rx="3" ry="3" />
    <text x="-112.8857" y="-787.9564" font-family="Arial" font-size="16" fill="#000000">
      <tspan x="-112.8857" dy="0">MeasureOverride(Page2)</tspan>
    </text>
    <rect fill="#add8e6" fill-opacity="1" stroke="#000000" stroke-opacity="1" stroke-width="1" x="181.4209" y="-1190.2773" width="139.1582" height="24.6367" rx="3" ry="3" />
    <text x="182.4209" y="-1170.4134" font-family="Arial" font-size="16" fill="#000000">
      <tspan x="182.4209" dy="0">初始化(Page1)</tspan>
    </text>
    <rect fill="#add8e6" fill-opacity="1" stroke="#000000" stroke-opacity="1" stroke-width="1" x="-110.5556" y="-753.1836" width="221.1113" height="24.6367" rx="3" ry="3" />
    <text x="-109.5556" y="-733.3196" font-family="Arial" font-size="16" fill="#000000">
      <tspan x="-109.5556" dy="0">ArrangeOverride(Page2)</tspan>
    </text>
    <rect fill="#add8e6" fill-opacity="1" stroke="#000000" stroke-opacity="1" stroke-width="1" x="-142.8164" y="-643.9101" width="285.6328" height="24.6367" rx="3" ry="3" />
    <text x="-141.8164" y="-624.0462" font-family="Arial" font-size="16" fill="#000000">
      <tspan x="-141.8164" dy="0">OnRenderSizeChanged(Page2)</tspan>
    </text>
    <rect fill="#add8e6" fill-opacity="1" stroke="#000000" stroke-opacity="1" stroke-width="1" x="-116.1123" y="-917.0937" width="232.2246" height="24.6367" rx="3" ry="3" />
    <text x="-115.1123" y="-897.2298" font-family="Arial" font-size="16" fill="#000000">
      <tspan x="-115.1123" dy="0">Navigated(Frame[Page1])</tspan>
    </text>
    <rect fill="#add8e6" fill-opacity="1" stroke="#000000" stroke-opacity="1" stroke-width="1" x="-12.5791" y="-1190.2773" width="139.1582" height="24.6367" rx="3" ry="3" />
    <text x="-11.5791" y="-1170.4134" font-family="Arial" font-size="16" fill="#000000">
      <tspan x="-11.5791" dy="0">初始化(Page2)</tspan>
    </text>
    <rect fill="#add8e6" fill-opacity="1" stroke="#000000" stroke-opacity="1" stroke-width="1" x="-135.5996" y="-1026.3671" width="271.1992" height="24.6367" rx="3" ry="3" />
    <text x="-134.5996" y="-1006.5032" font-family="Arial" font-size="16" fill="#000000">
      <tspan x="-134.5996" dy="0">导航到 Page2(Frame[Page1])</tspan>
    </text>
    <rect fill="#add8e6" fill-opacity="1" stroke="#000000" stroke-opacity="1" stroke-width="1" x="145.8399" y="-917.0937" width="210.3203" height="24.6367" rx="3" ry="3" />
    <text x="146.8399" y="-897.2298" font-family="Arial" font-size="16" fill="#000000">
      <tspan x="146.8399" dy="0">Navigating(Frame[null])</tspan>
    </text>
    <rect fill="#add8e6" fill-opacity="1" stroke="#000000" stroke-opacity="1" stroke-width="1" x="159.1602" y="-1081.0039" width="183.6797" height="24.6367" rx="3" ry="3" />
    <text x="160.1602" y="-1061.1399" font-family="Arial" font-size="16" fill="#000000">
      <tspan x="160.1602" dy="0">OnInitialized(Page1)</tspan>
    </text>
    <!--end of nodes-->
  </g>
</svg>